<?xml version="1.0" encoding="utf-8"?>
<!-- Generator: Adobe Illustrator 22.0.1, SVG Export Plug-In . SVG Version: 6.00 Build 0)  -->
<svg version="1.1" id="Layer_1" xmlns="http://www.w3.org/2000/svg" xmlns:xlink="http://www.w3.org/1999/xlink" x="0px" y="0px"
	 viewBox="0 0 381.9 336.7" style="enable-background:new 0 0 381.9 336.7;" xml:space="preserve">
<style type="text/css">
	.st0{font-family:'ProductSans-Bold';}
	.st1{font-size:145.6556px;}
	.st2{letter-spacing:-2;}
</style>
<text transform="matrix(1 0 0 1 2.136230e-04 171.567)" class="st0 st1 st2">360°</text>
<path d="M64.2,193.1h25.5c0,0-8.5,25-8.5,40s7,37.5,36,37.5s77.5-26,105-51l-22-22.5l120-25.5l-25.5,120.5l-26-27.5
	c0,0-72,68.5-148.5,70S33.7,262.1,64.2,193.1z"/>
<path d="M179.7,54.6h38c0,0,33.5-21,63-20.5s36.5,20.5,36.5,38s-13.5,56.5-28,73.5l80-17c0,0,13-29.5,11-58s-9.5-66-66.5-68
	S200.7,39.1,179.7,54.6z"/>
</svg>
