<svg id="logo" xmlns="http://www.w3.org/2000/svg" viewBox="0 0 245 71.877">
  <defs>
    <style>
      .cls-1 {
        fill: #1d9577;
      }

      .cls-2 {
        fill: #616262;
      }

      .cls-3 {
        fill: #6d6c6d;
      }
    </style>
  </defs>
  <path id="Path_615" data-name="Path 615" class="cls-1" d="M35.939,0a35.939,35.939,0,1,0,24.8,61.936c-.514.457-.971.914-1.486,1.371a100.273,100.273,0,0,1-25.2-21.483c3.942,7.885,15.427,16,15.77,16.227a26.1,26.1,0,0,1,3.828,2.971c1.428,1.371.114,1.428-5.257,2.057s-6.742-1.828-6.742-1.828c1.486-.4,2.057-2.914,2.057-2.914-.971,1.314-3.942,2.228-3.942,2.228-7.2-3.428-10.056-11.884-10.056-11.884,1.714,1.657,6.171,2.114,6.171,2.114-2.457-.857-6.456-4.285-8.856-6.056-2.4-1.828-2.857-9.485-2.857-9.485a10.183,10.183,0,0,0,2.971.286,13.381,13.381,0,0,1-3.371-2.228c-2.057-3.542-.343-13.541-.343-13.541.686,1.2,3.2,1.771,3.2,1.771l-2.857-3.371s-.343-1.428,2.685-6.4,6.114-2,6.571,1.086a92.445,92.445,0,0,0,2.8,10.742c.857,2.857-1.028,6.342-1.028,6.342a20.731,20.731,0,0,1,2.628-2.571c.057,2.457,4.628,9.656,5.371,10.513.686.857.343,2.343.057,3.428-.286,1.143.743.686.743.686l-.229-1.371A19.206,19.206,0,0,1,46.509,42c2.114,1.143.686,6.8.686,6.8,2.228-1.086,1.257-4.628,1.257-4.628a8.831,8.831,0,0,1,4.114,2.514c1.714,1.943-1.714,7.256-1.714,7.256,1.2-.114,4.171-4.514,4.171-4.514,4.057,3.485.514,7.771.514,7.771.914-.743,2.914.457,2.914.457l-1.257,1.486s1.714,1.314,3.657,2.8A35.927,35.927,0,0,0,35.939,0Z"/>
  <g id="Group_193" data-name="Group 193" transform="translate(79.076 49.537)">
    <path id="Path_616" data-name="Path 616" class="cls-2" d="M138.4,86.9h2.343a4.219,4.219,0,0,1,1.6.286,3.558,3.558,0,0,1,1.028.8,2.945,2.945,0,0,1,.514,1.143,5.187,5.187,0,0,1,.171,1.314,5.756,5.756,0,0,1-.171,1.428,2.8,2.8,0,0,1-.628,1.143,2.644,2.644,0,0,1-1.028.743,3.822,3.822,0,0,1-1.486.286H138.4V86.9Zm2.343,6.8a3.235,3.235,0,0,0,1.028-.171,2.9,2.9,0,0,0,.914-.514,2.483,2.483,0,0,0,.686-.971A3.994,3.994,0,0,0,143.6,90.5a3.926,3.926,0,0,0-.171-1.257,2.985,2.985,0,0,0-.4-.857,2.708,2.708,0,0,0-.571-.571c-.229-.114-.4-.229-.628-.343-.229-.057-.457-.114-.629-.171-.229,0-.4-.057-.571-.057H138.8v6.4h1.943Z" transform="translate(-138.4 -86.786)"/>
    <path id="Path_617" data-name="Path 617" class="cls-2" d="M150.2,87.928V86.9h.4v1.028Zm0,6.114v-5.2h.4v5.2Z" transform="translate(-143.458 -86.786)"/>
    <path id="Path_618" data-name="Path 618" class="cls-2" d="M152.957,93.7a1.152,1.152,0,0,0,.171.628,3.175,3.175,0,0,0,.343.457,2.317,2.317,0,0,0,.514.286,2.429,2.429,0,0,0,.628.114,1.582,1.582,0,0,0,.514-.057l.514-.171a.768.768,0,0,0,.4-.343.965.965,0,0,0,.171-.571.737.737,0,0,0-.286-.629,1.3,1.3,0,0,0-.686-.343,4.554,4.554,0,0,0-.857-.171,4.759,4.759,0,0,1-.857-.229,1.808,1.808,0,0,1-.686-.457,1.13,1.13,0,0,1-.286-.8,1.152,1.152,0,0,1,.171-.628,1.54,1.54,0,0,1,.457-.4,2.385,2.385,0,0,1,.571-.229,2.781,2.781,0,0,1,.686-.057,2.9,2.9,0,0,1,.743.114,2.112,2.112,0,0,1,.629.286,1.244,1.244,0,0,1,.4.514,1.582,1.582,0,0,1,.171.743h-.4a2.054,2.054,0,0,0-.114-.629.768.768,0,0,0-.343-.4,1.077,1.077,0,0,0-.514-.229,2.141,2.141,0,0,0-.628-.057,1.581,1.581,0,0,0-.514.057,3.935,3.935,0,0,0-.457.171,1.515,1.515,0,0,0-.343.286.616.616,0,0,0-.114.457.7.7,0,0,0,.171.514,1.025,1.025,0,0,0,.4.286c.171.057.343.114.571.171a2.429,2.429,0,0,0,.629.114c.229.057.514.114.743.171a1.788,1.788,0,0,1,.571.286,1.059,1.059,0,0,1,.4.457,1.238,1.238,0,0,1,.114.686,1.219,1.219,0,0,1-.171.686,1.739,1.739,0,0,1-.457.457,2.048,2.048,0,0,1-.629.229,2.783,2.783,0,0,1-.686.057,3.371,3.371,0,0,1-.8-.114,1.931,1.931,0,0,1-.686-.343,2.238,2.238,0,0,1-.457-.571,1.826,1.826,0,0,1-.171-.8Z" transform="translate(-144.444 -88.157)"/>
    <path id="Path_619" data-name="Path 619" class="cls-2" d="M165.2,91.786a1.152,1.152,0,0,0-.171-.628,1.54,1.54,0,0,0-.4-.457,2.315,2.315,0,0,0-.514-.286,2.455,2.455,0,0,0-.686-.114,1.908,1.908,0,0,0-.857.171,1.786,1.786,0,0,0-.629.514,3.081,3.081,0,0,0-.4.743,2.222,2.222,0,0,0-.114.857,5.032,5.032,0,0,0,.114.971,1.56,1.56,0,0,0,.4.743,1.787,1.787,0,0,0,.629.514,1.908,1.908,0,0,0,.857.171,2.867,2.867,0,0,0,.686-.114,1.185,1.185,0,0,0,.571-.343,1.244,1.244,0,0,0,.4-.514,2.045,2.045,0,0,0,.229-.628h.4a3.272,3.272,0,0,1-.229.8,2.536,2.536,0,0,1-.457.628,1.976,1.976,0,0,1-.686.4,1.816,1.816,0,0,1-.8.114,2.175,2.175,0,0,1-1.086-.229,1.988,1.988,0,0,1-.743-.628,2.357,2.357,0,0,1-.4-.857,3.164,3.164,0,0,1-.114-1.028,3.236,3.236,0,0,1,.171-1.028,2.06,2.06,0,0,1,.457-.857,2.358,2.358,0,0,1,.743-.571A2.729,2.729,0,0,1,163.6,89.9a3.371,3.371,0,0,1,.8.114,1.362,1.362,0,0,1,.629.343,1.972,1.972,0,0,1,.457.514,2.832,2.832,0,0,1,.229.743H165.2Z" transform="translate(-148.173 -88.072)"/>
    <path id="Path_620" data-name="Path 620" class="cls-2" d="M170.2,92.885a2.988,2.988,0,0,1,.171-1.028,2.059,2.059,0,0,1,.457-.857,2.355,2.355,0,0,1,.743-.571A2.729,2.729,0,0,1,172.6,90.2a1.956,1.956,0,0,1,1.028.229,2.562,2.562,0,0,1,.743.571,2.061,2.061,0,0,1,.457.857A3.235,3.235,0,0,1,175,92.885a2.988,2.988,0,0,1-.171,1.028,2.06,2.06,0,0,1-.457.857,2.356,2.356,0,0,1-.743.571,2.428,2.428,0,0,1-2.057,0,2.562,2.562,0,0,1-.743-.571,3.114,3.114,0,0,1-.629-1.885Zm.343,0a5,5,0,0,0,.114.914,3.079,3.079,0,0,0,.4.743,1.787,1.787,0,0,0,.629.514,2.229,2.229,0,0,0,1.714,0,1.787,1.787,0,0,0,.629-.514,3.081,3.081,0,0,0,.4-.743,2.368,2.368,0,0,0,.114-.914,4.441,4.441,0,0,0-.114-.914,3.08,3.08,0,0,0-.4-.743,1.787,1.787,0,0,0-.629-.514,2.228,2.228,0,0,0-1.714,0,1.786,1.786,0,0,0-.629.514,3.078,3.078,0,0,0-.4.743A5,5,0,0,0,170.543,92.885Z" transform="translate(-152.031 -88.2)"/>
    <path id="Path_621" data-name="Path 621" class="cls-2" d="M181.614,95.5h-.457L179.1,90.3h.457l1.885,4.742h0l1.771-4.742h.4Z" transform="translate(-155.846 -88.243)"/>
    <path id="Path_622" data-name="Path 622" class="cls-2" d="M187.843,92.9v.057a4.411,4.411,0,0,0,.114.857,2.955,2.955,0,0,0,.343.743,1.621,1.621,0,0,0,.571.514,1.908,1.908,0,0,0,.857.171,1.847,1.847,0,0,0,1.257-.4,2.217,2.217,0,0,0,.629-1.143h.4a2.022,2.022,0,0,1-.743,1.371,2.107,2.107,0,0,1-1.486.457,1.956,1.956,0,0,1-1.028-.229,2.356,2.356,0,0,1-.743-.571,1.987,1.987,0,0,1-.4-.857,3.163,3.163,0,0,1-.114-1.028,3.236,3.236,0,0,1,.171-1.028,2.061,2.061,0,0,1,.457-.857,2.706,2.706,0,0,1,.743-.629A1.957,1.957,0,0,1,189.9,90.1a1.878,1.878,0,0,1,.971.229,1.68,1.68,0,0,1,.686.571,2.109,2.109,0,0,1,.4.8,2.668,2.668,0,0,1,.171.971V92.9Zm3.828-.343a3.371,3.371,0,0,0-.114-.8,3.838,3.838,0,0,0-.343-.686,1.14,1.14,0,0,0-.571-.457,1.659,1.659,0,0,0-.8-.171,1.825,1.825,0,0,0-.8.171,1.555,1.555,0,0,0-.571.457,1.974,1.974,0,0,0-.4.686,3.3,3.3,0,0,0-.171.8Z" transform="translate(-159.446 -88.157)"/>
    <path id="Path_623" data-name="Path 623" class="cls-2" d="M197.4,91.543h0a1.244,1.244,0,0,1,.286-.457,1.541,1.541,0,0,1,.457-.4,2.389,2.389,0,0,1,.571-.229,2.782,2.782,0,0,1,.686-.057v.343a2.782,2.782,0,0,0-.686.057,1.472,1.472,0,0,0-.743.457,1,1,0,0,0-.229.286c-.057.114-.114.171-.171.286a3.642,3.642,0,0,0-.114.4c0,.114-.057.286-.057.514V95.6H197V90.4h.4Z" transform="translate(-163.518 -88.286)"/>
    <path id="Path_624" data-name="Path 624" class="cls-2" d="M208.171,89.543h-1.143v3.6a1.267,1.267,0,0,0,.057.514.57.57,0,0,0,.228.286.812.812,0,0,0,.343.114h.457V94.4h-.571a.922.922,0,0,1-.514-.171,1.24,1.24,0,0,1-.343-.4,2.132,2.132,0,0,1-.114-.686v-3.6H205.6V89.2h.971V87.6h.4v1.6h1.143v.343Z" transform="translate(-167.204 -87.086)"/>
    <path id="Path_625" data-name="Path 625" class="cls-2" d="M211.657,86.9v3.143h0a2.314,2.314,0,0,1,.286-.514,1.54,1.54,0,0,1,.457-.4,2.03,2.03,0,0,1,.514-.229,1.943,1.943,0,0,1,.571-.057,2.536,2.536,0,0,1,.743.114,1.105,1.105,0,0,1,.514.286c.114.114.229.286.343.4.057.171.114.286.171.457a1.258,1.258,0,0,1,.057.457v3.6h-.4V90.9a1.42,1.42,0,0,0-.057-.457,1.1,1.1,0,0,0-.171-.571,1.169,1.169,0,0,0-.457-.457,1.513,1.513,0,0,0-.8-.171,1.825,1.825,0,0,0-.8.171,1.451,1.451,0,0,0-.571.457,1.3,1.3,0,0,0-.343.686,4.411,4.411,0,0,0-.114.857v2.8h-.4V86.9Z" transform="translate(-169.605 -86.786)"/>
    <path id="Path_626" data-name="Path 626" class="cls-2" d="M220.543,92.9v.057a4.411,4.411,0,0,0,.114.857,1.77,1.77,0,0,0,.343.743,1.62,1.62,0,0,0,.571.514,1.908,1.908,0,0,0,.857.171,1.847,1.847,0,0,0,1.257-.4,2.217,2.217,0,0,0,.629-1.143h.4a2.022,2.022,0,0,1-.743,1.371,2.107,2.107,0,0,1-1.486.457,1.956,1.956,0,0,1-1.028-.229,2.356,2.356,0,0,1-.743-.571,1.988,1.988,0,0,1-.4-.857,3.163,3.163,0,0,1-.114-1.028,3.237,3.237,0,0,1,.171-1.028,2.06,2.06,0,0,1,.457-.857,2.705,2.705,0,0,1,.743-.629A1.957,1.957,0,0,1,222.6,90.1a1.878,1.878,0,0,1,.971.229,1.679,1.679,0,0,1,.686.571,3.639,3.639,0,0,1,.457.8,2.669,2.669,0,0,1,.171.971V92.9Zm3.771-.343a3.372,3.372,0,0,0-.114-.8,1.931,1.931,0,0,0-.343-.686,1.451,1.451,0,0,0-.571-.457,1.66,1.66,0,0,0-.8-.171,1.825,1.825,0,0,0-.8.171,1.556,1.556,0,0,0-.571.457,3.624,3.624,0,0,0-.4.686,3.3,3.3,0,0,0-.171.8Z" transform="translate(-173.463 -88.157)"/>
    <path id="Path_627" data-name="Path 627" class="cls-2" d="M238.428,92.914h0a2.562,2.562,0,0,1-.8.914,2.082,2.082,0,0,1-1.2.286,1.957,1.957,0,0,1-1.028-.229,2.287,2.287,0,0,1-.686-.571,1.988,1.988,0,0,1-.4-.857,3.165,3.165,0,0,1-.114-1.028,6.329,6.329,0,0,1,.114-1.086,1.988,1.988,0,0,1,.4-.857,1.857,1.857,0,0,1,.743-.571,2.73,2.73,0,0,1,1.028-.229,2.43,2.43,0,0,1,.628.114,1.711,1.711,0,0,1,.571.229,1.541,1.541,0,0,1,.457.4,1.786,1.786,0,0,1,.286.571h0V86.8h.4V94h-.4Zm-1.943.914a1.377,1.377,0,0,0,.857-.229,1.251,1.251,0,0,0,.571-.514,1.771,1.771,0,0,0,.343-.743,3.269,3.269,0,0,0,0-1.714,1.771,1.771,0,0,0-.343-.743,1.621,1.621,0,0,0-.571-.514,1.939,1.939,0,0,0-1.714-.057,1.251,1.251,0,0,0-.571.514,1.772,1.772,0,0,0-.343.743,3.487,3.487,0,0,0,0,1.771,1.772,1.772,0,0,0,.343.743,1.621,1.621,0,0,0,.571.514A1.893,1.893,0,0,0,236.485,93.828Z" transform="translate(-179.464 -86.743)"/>
    <path id="Path_628" data-name="Path 628" class="cls-2" d="M244.5,87.928V86.9h.4v1.028Zm0,6.114v-5.2h.4v5.2Z" transform="translate(-183.878 -86.786)"/>
    <path id="Path_629" data-name="Path 629" class="cls-2" d="M246.3,89.157v-.343h.914V87.728a1.076,1.076,0,0,1,.114-.457,1.193,1.193,0,0,1,.229-.343l.343-.171a1.114,1.114,0,0,1,.457-.057,1.421,1.421,0,0,1,.457.057V87.1a1.421,1.421,0,0,0-.457-.057.7.7,0,0,0-.514.171.6.6,0,0,0-.228.571v1.028H248.7v.343h-1.086v4.857h-.343V89.157Z" transform="translate(-184.65 -86.7)"/>
    <path id="Path_630" data-name="Path 630" class="cls-2" d="M250.6,89.157v-.343h.914V87.728a1.076,1.076,0,0,1,.114-.457,1.2,1.2,0,0,1,.228-.343l.343-.171a1.114,1.114,0,0,1,.457-.057,1.42,1.42,0,0,1,.457.057V87.1a1.42,1.42,0,0,0-.457-.057.7.7,0,0,0-.514.171.6.6,0,0,0-.229.571v1.028H253v.343h-1.086v4.857h-.4V89.157Z" transform="translate(-186.493 -86.7)"/>
    <path id="Path_631" data-name="Path 631" class="cls-2" d="M255.843,92.9v.057a4.414,4.414,0,0,0,.114.857,1.771,1.771,0,0,0,.343.743,1.62,1.62,0,0,0,.571.514,1.908,1.908,0,0,0,.857.171,1.847,1.847,0,0,0,1.257-.4,2.217,2.217,0,0,0,.629-1.143h.4a2.022,2.022,0,0,1-.743,1.371,2.107,2.107,0,0,1-1.485.457,1.956,1.956,0,0,1-1.028-.229,2.356,2.356,0,0,1-.743-.571,1.987,1.987,0,0,1-.4-.857,3.162,3.162,0,0,1-.114-1.028,3.235,3.235,0,0,1,.171-1.028,2.061,2.061,0,0,1,.457-.857,2.7,2.7,0,0,1,.743-.629A1.957,1.957,0,0,1,257.9,90.1a1.878,1.878,0,0,1,.971.229,1.681,1.681,0,0,1,.686.571,3.64,3.64,0,0,1,.457.8,2.669,2.669,0,0,1,.171.971V92.9Zm3.771-.343a3.362,3.362,0,0,0-.114-.8,1.929,1.929,0,0,0-.343-.686,1.449,1.449,0,0,0-.571-.457,1.659,1.659,0,0,0-.8-.171,1.826,1.826,0,0,0-.8.171,1.555,1.555,0,0,0-.571.457,3.627,3.627,0,0,0-.4.686,3.3,3.3,0,0,0-.171.8Z" transform="translate(-188.594 -88.157)"/>
    <path id="Path_632" data-name="Path 632" class="cls-2" d="M265.343,91.543h0a1.244,1.244,0,0,1,.286-.457,1.54,1.54,0,0,1,.457-.4,2.39,2.39,0,0,1,.571-.229,2.783,2.783,0,0,1,.686-.057v.343a2.782,2.782,0,0,0-.686.057,1.472,1.472,0,0,0-.743.457,1,1,0,0,0-.228.286c-.057.114-.114.171-.171.286a3.65,3.65,0,0,0-.114.4c0,.114-.057.286-.057.514V95.6H265V90.4h.4v1.143Z" transform="translate(-192.666 -88.286)"/>
    <path id="Path_633" data-name="Path 633" class="cls-2" d="M269.843,92.9v.057a4.411,4.411,0,0,0,.114.857,1.77,1.77,0,0,0,.343.743,1.619,1.619,0,0,0,.571.514,1.907,1.907,0,0,0,.857.171,1.847,1.847,0,0,0,1.257-.4,2.216,2.216,0,0,0,.628-1.143h.4a2.023,2.023,0,0,1-.743,1.371,2.108,2.108,0,0,1-1.486.457,1.956,1.956,0,0,1-1.028-.229,2.356,2.356,0,0,1-.743-.571,1.989,1.989,0,0,1-.4-.857,3.165,3.165,0,0,1-.114-1.028,3.236,3.236,0,0,1,.171-1.028,2.06,2.06,0,0,1,.457-.857,2.705,2.705,0,0,1,.743-.629A1.956,1.956,0,0,1,271.9,90.1a1.878,1.878,0,0,1,.971.229,1.68,1.68,0,0,1,.686.571,3.644,3.644,0,0,1,.457.8,2.669,2.669,0,0,1,.171.971V92.9Zm3.828-.343a3.374,3.374,0,0,0-.114-.8,1.932,1.932,0,0,0-.343-.686,2.234,2.234,0,0,0-.571-.457,1.659,1.659,0,0,0-.8-.171,1.825,1.825,0,0,0-.8.171,1.554,1.554,0,0,0-.571.457,3.631,3.631,0,0,0-.4.686,3.3,3.3,0,0,0-.171.8Z" transform="translate(-194.594 -88.157)"/>
    <path id="Path_634" data-name="Path 634" class="cls-2" d="M279,90.314h.4V91.4h0a2.314,2.314,0,0,1,.286-.514,1.539,1.539,0,0,1,.457-.4,2.029,2.029,0,0,1,.514-.229,1.944,1.944,0,0,1,.571-.057,2.535,2.535,0,0,1,.743.114,1.1,1.1,0,0,1,.514.286c.114.114.229.286.343.4.057.171.114.286.171.457a1.259,1.259,0,0,1,.057.457v3.6h-.4V92.257a1.42,1.42,0,0,0-.057-.457,1.1,1.1,0,0,0-.171-.571,1.169,1.169,0,0,0-.457-.457,1.513,1.513,0,0,0-.8-.171,1.825,1.825,0,0,0-.8.171,1.451,1.451,0,0,0-.571.457,1.3,1.3,0,0,0-.343.686,4.411,4.411,0,0,0-.114.857v2.8H279Z" transform="translate(-198.667 -88.2)"/>
    <path id="Path_635" data-name="Path 635" class="cls-2" d="M292,91.786a1.152,1.152,0,0,0-.171-.628,1.54,1.54,0,0,0-.4-.457,2.319,2.319,0,0,0-.514-.286,2.456,2.456,0,0,0-.686-.114,1.908,1.908,0,0,0-.857.171,1.786,1.786,0,0,0-.629.514,3.079,3.079,0,0,0-.4.743,2.22,2.22,0,0,0-.114.857,5.025,5.025,0,0,0,.114.971,1.56,1.56,0,0,0,.4.743,1.786,1.786,0,0,0,.629.514,1.908,1.908,0,0,0,.857.171,2.868,2.868,0,0,0,.686-.114,1.186,1.186,0,0,0,.571-.343,1.244,1.244,0,0,0,.4-.514,2.043,2.043,0,0,0,.229-.628h.4a3.278,3.278,0,0,1-.229.8,2.534,2.534,0,0,1-.457.628,1.975,1.975,0,0,1-.686.4,1.816,1.816,0,0,1-.8.114,2.175,2.175,0,0,1-1.086-.229,1.99,1.99,0,0,1-.743-.628,2.9,2.9,0,0,1-.4-.857A3.164,3.164,0,0,1,288,92.585a3.235,3.235,0,0,1,.171-1.028,3.028,3.028,0,0,1,.457-.857,2.358,2.358,0,0,1,.743-.571A2.729,2.729,0,0,1,290.4,89.9a3.37,3.37,0,0,1,.8.114,1.362,1.362,0,0,1,.629.343,1.972,1.972,0,0,1,.457.514,2.829,2.829,0,0,1,.228.743H292Z" transform="translate(-202.524 -88.072)"/>
    <path id="Path_636" data-name="Path 636" class="cls-2" d="M297.243,92.9v.057a4.411,4.411,0,0,0,.114.857,1.77,1.77,0,0,0,.343.743,1.62,1.62,0,0,0,.571.514,1.908,1.908,0,0,0,.857.171,1.847,1.847,0,0,0,1.257-.4,2.218,2.218,0,0,0,.628-1.143h.4a2.022,2.022,0,0,1-.743,1.371,2.107,2.107,0,0,1-1.486.457,1.956,1.956,0,0,1-1.028-.229,2.357,2.357,0,0,1-.743-.571,1.989,1.989,0,0,1-.4-.857,3.162,3.162,0,0,1-.114-1.028,3.233,3.233,0,0,1,.172-1.028,2.06,2.06,0,0,1,.457-.857,2.705,2.705,0,0,1,.743-.629A1.957,1.957,0,0,1,299.3,90.1a1.878,1.878,0,0,1,.971.229,1.679,1.679,0,0,1,.686.571,3.639,3.639,0,0,1,.457.8,2.669,2.669,0,0,1,.171.971V92.9Zm3.828-.343a3.366,3.366,0,0,0-.114-.8,1.93,1.93,0,0,0-.343-.686,2.235,2.235,0,0,0-.571-.457,1.659,1.659,0,0,0-.8-.171,1.825,1.825,0,0,0-.8.171,1.555,1.555,0,0,0-.571.457,3.624,3.624,0,0,0-.4.686,3.3,3.3,0,0,0-.171.8Z" transform="translate(-206.339 -88.157)"/>
    <path id="Path_637" data-name="Path 637" class="cls-2" d="M311.5,87.928V86.9h.4v1.028Zm0,6.114v-5.2h.4v5.2Z" transform="translate(-212.597 -86.786)"/>
    <path id="Path_638" data-name="Path 638" class="cls-2" d="M314.257,90.314h.4V91.4h0a2.319,2.319,0,0,1,.286-.514,1.54,1.54,0,0,1,.457-.4,2.031,2.031,0,0,1,.514-.229,1.942,1.942,0,0,1,.571-.057,2.536,2.536,0,0,1,.743.114,1.1,1.1,0,0,1,.514.286c.114.114.229.286.343.4.057.171.114.286.172.457a1.258,1.258,0,0,1,.057.457v3.6h-.4V92.257a1.42,1.42,0,0,0-.057-.457,1.1,1.1,0,0,0-.171-.571,1.17,1.17,0,0,0-.457-.457,1.513,1.513,0,0,0-.8-.171,1.824,1.824,0,0,0-.8.171,1.45,1.45,0,0,0-.572.457,1.3,1.3,0,0,0-.343.686,4.411,4.411,0,0,0-.114.857v2.8h-.4V90.314Z" transform="translate(-213.755 -88.2)"/>
    <path id="Path_639" data-name="Path 639" class="cls-2" d="M332.128,92.914h0a2.561,2.561,0,0,1-.8.914,2.082,2.082,0,0,1-1.2.286,1.957,1.957,0,0,1-1.028-.229,2.286,2.286,0,0,1-.686-.571,1.989,1.989,0,0,1-.4-.857,3.166,3.166,0,0,1-.114-1.028,6.329,6.329,0,0,1,.114-1.086,2.987,2.987,0,0,1,.4-.857,1.855,1.855,0,0,1,.743-.571,2.729,2.729,0,0,1,1.028-.229,2.429,2.429,0,0,1,.629.114,1.71,1.71,0,0,1,.571.229,1.539,1.539,0,0,1,.457.4,1.787,1.787,0,0,1,.286.571h0V86.8h.4V94h-.4V92.914Zm-1.885.914a1.377,1.377,0,0,0,.857-.229,1.25,1.25,0,0,0,.571-.514,1.77,1.77,0,0,0,.343-.743,3.27,3.27,0,0,0,0-1.714,1.77,1.77,0,0,0-.343-.743,1.621,1.621,0,0,0-.571-.514,1.939,1.939,0,0,0-1.714-.057,1.25,1.25,0,0,0-.571.514,1.771,1.771,0,0,0-.343.743,3.486,3.486,0,0,0,0,1.771,1.77,1.77,0,0,0,.343.743,1.622,1.622,0,0,0,.571.514A1.893,1.893,0,0,0,330.243,93.828Z" transform="translate(-219.627 -86.743)"/>
    <path id="Path_640" data-name="Path 640" class="cls-2" d="M338.143,92.9v.057a4.411,4.411,0,0,0,.114.857,1.771,1.771,0,0,0,.343.743,1.62,1.62,0,0,0,.571.514,1.908,1.908,0,0,0,.857.171,1.847,1.847,0,0,0,1.257-.4,2.217,2.217,0,0,0,.629-1.143h.4a2.022,2.022,0,0,1-.743,1.371,2.107,2.107,0,0,1-1.486.457,1.956,1.956,0,0,1-1.028-.229,2.354,2.354,0,0,1-.743-.571,1.988,1.988,0,0,1-.4-.857,3.164,3.164,0,0,1-.114-1.028,3.236,3.236,0,0,1,.171-1.028,2.062,2.062,0,0,1,.457-.857,2.7,2.7,0,0,1,.743-.629A1.957,1.957,0,0,1,340.2,90.1a1.878,1.878,0,0,1,.971.229,1.681,1.681,0,0,1,.686.571,3.645,3.645,0,0,1,.457.8,2.669,2.669,0,0,1,.171.971V92.9Zm3.771-.343a3.366,3.366,0,0,0-.114-.8,1.929,1.929,0,0,0-.343-.686,2.237,2.237,0,0,0-.571-.457,1.659,1.659,0,0,0-.8-.171,1.824,1.824,0,0,0-.8.171,1.557,1.557,0,0,0-.572.457,3.628,3.628,0,0,0-.4.686,3.3,3.3,0,0,0-.171.8Z" transform="translate(-223.87 -88.157)"/>
    <path id="Path_641" data-name="Path 641" class="cls-2" d="M347.257,93.7a1.153,1.153,0,0,0,.171.628,3.18,3.18,0,0,0,.343.457,2.317,2.317,0,0,0,.514.286,2.429,2.429,0,0,0,.629.114,1.582,1.582,0,0,0,.514-.057l.514-.171a.768.768,0,0,0,.4-.343.965.965,0,0,0,.171-.571.737.737,0,0,0-.286-.629,1.925,1.925,0,0,0-.686-.343,4.555,4.555,0,0,0-.857-.171,4.761,4.761,0,0,1-.857-.229,1.81,1.81,0,0,1-.686-.457,1.13,1.13,0,0,1-.286-.8,1.152,1.152,0,0,1,.171-.628,1.54,1.54,0,0,1,.457-.4,2.387,2.387,0,0,1,.571-.229,2.782,2.782,0,0,1,.686-.057,2.9,2.9,0,0,1,.743.114,2.114,2.114,0,0,1,.629.286,1.244,1.244,0,0,1,.4.514,1.582,1.582,0,0,1,.171.743h-.4a2.054,2.054,0,0,0-.114-.629.769.769,0,0,0-.343-.4,1.076,1.076,0,0,0-.514-.229,2.141,2.141,0,0,0-.628-.057,1.582,1.582,0,0,0-.514.057,3.936,3.936,0,0,0-.457.171,1.514,1.514,0,0,0-.343.286.615.615,0,0,0-.114.457.7.7,0,0,0,.171.514,1.027,1.027,0,0,0,.4.286c.171.057.343.114.571.171a2.429,2.429,0,0,0,.629.114c.228.057.514.114.743.171a1.786,1.786,0,0,1,.571.286,1.059,1.059,0,0,1,.4.457,1.237,1.237,0,0,1,.114.686,1.218,1.218,0,0,1-.171.686,1.739,1.739,0,0,1-.457.457,2.049,2.049,0,0,1-.629.229,2.782,2.782,0,0,1-.686.057,3.372,3.372,0,0,1-.8-.114,1.931,1.931,0,0,1-.686-.343,2.236,2.236,0,0,1-.457-.571,1.824,1.824,0,0,1-.171-.8Z" transform="translate(-227.728 -88.157)"/>
    <path id="Path_642" data-name="Path 642" class="cls-2" d="M355.9,87.928V86.9h.4v1.028Zm0,6.114v-5.2h.4v5.2Z" transform="translate(-231.629 -86.786)"/>
    <path id="Path_643" data-name="Path 643" class="cls-2" d="M362.814,90.229v4.914A4.411,4.411,0,0,1,362.7,96a1.769,1.769,0,0,1-.343.743,1.559,1.559,0,0,1-.686.514,2.88,2.88,0,0,1-1.086.171,3.773,3.773,0,0,1-.8-.057,2.113,2.113,0,0,1-.628-.286,1.349,1.349,0,0,1-.457-.514,1.581,1.581,0,0,1-.172-.743h.4a.966.966,0,0,0,.171.571,2.489,2.489,0,0,0,.343.4,1.411,1.411,0,0,0,.514.229,2.142,2.142,0,0,0,.628.057,2.368,2.368,0,0,0,.914-.171,2.053,2.053,0,0,0,.571-.4,1.788,1.788,0,0,0,.286-.571,2.782,2.782,0,0,0,.057-.686V94h-.057a1.586,1.586,0,0,1-.743.857,1.8,1.8,0,0,1-1.143.286,2.463,2.463,0,0,1-.971-.171,1.334,1.334,0,0,1-.686-.571,2.113,2.113,0,0,1-.4-.8,2.839,2.839,0,0,1-.114-1.028,2.67,2.67,0,0,1,.171-.971,3.493,3.493,0,0,1,.4-.8,2.285,2.285,0,0,1,.686-.571,2.432,2.432,0,0,1,.971-.229,2.6,2.6,0,0,1,1.143.286,1.963,1.963,0,0,1,.743.914h0V90.114h.4Zm-2.286.171a1.659,1.659,0,0,0-.8.171,1.621,1.621,0,0,0-.572.514,1.932,1.932,0,0,0-.343.686,3.859,3.859,0,0,0-.114.8,4.411,4.411,0,0,0,.114.857,1.3,1.3,0,0,0,.343.686,1.451,1.451,0,0,0,.572.457,1.824,1.824,0,0,0,.8.171,1.659,1.659,0,0,0,.8-.171,1.251,1.251,0,0,0,.571-.514,1.93,1.93,0,0,0,.343-.686,3.268,3.268,0,0,0,0-1.714,1.3,1.3,0,0,0-.343-.686,2.457,2.457,0,0,0-.571-.514C361.1,90.286,360.871,90.4,360.528,90.4Z" transform="translate(-232.658 -88.115)"/>
    <path id="Path_644" data-name="Path 644" class="cls-2" d="M368.157,90.314h.4V91.4h0a2.314,2.314,0,0,1,.286-.514,1.54,1.54,0,0,1,.457-.4,2.028,2.028,0,0,1,.514-.229,1.943,1.943,0,0,1,.571-.057,2.536,2.536,0,0,1,.743.114,1.1,1.1,0,0,1,.514.286c.114.114.229.286.343.4.057.171.114.286.171.457a1.258,1.258,0,0,1,.057.457v3.6h-.4V92.257a1.422,1.422,0,0,0-.057-.457,1.1,1.1,0,0,0-.172-.571,1.17,1.17,0,0,0-.457-.457,1.513,1.513,0,0,0-.8-.171,1.825,1.825,0,0,0-.8.171,1.451,1.451,0,0,0-.571.457,1.3,1.3,0,0,0-.343.686,4.4,4.4,0,0,0-.114.857v2.8h-.4V90.314Z" transform="translate(-236.858 -88.2)"/>
  </g>
  <g id="Group_194" data-name="Group 194" transform="translate(76.962 15.598)">
    <path id="Path_645" data-name="Path 645" class="cls-3" d="M144.585,44.285a8.754,8.754,0,0,1,2.4-1.943h-5.542V40.514a1.648,1.648,0,0,1,.571-1.486,2.587,2.587,0,0,1,1.371-.4,5.557,5.557,0,0,1,1.028.057,3.3,3.3,0,0,1,.8.171V35.829a10.762,10.762,0,0,0-2.743-.229,9.455,9.455,0,0,0-1.828.171,3.873,3.873,0,0,0-1.543.743,4.166,4.166,0,0,0-1.086,1.6,7.32,7.32,0,0,0-.4,2.743v1.486h-2a.9.9,0,0,0-.914.914V44.4a.9.9,0,0,0,.914.914h2V58.8a1.268,1.268,0,0,0,1.257,1.257h1.314a1.268,1.268,0,0,0,1.257-1.257V45.313h2.4A11.576,11.576,0,0,0,144.585,44.285Z" transform="translate(-134.7 -30.858)"/>
    <path id="Path_646" data-name="Path 646" class="cls-3" d="M194.97,60.87a2.388,2.388,0,0,0,.171,1.028c.114.229.343.286.743.286h.4a2.143,2.143,0,0,0,.571-.057v2.685a2.656,2.656,0,0,1-.514.171l-.686.171c-.228.057-.457.057-.686.114-.229,0-.4.057-.571.057a4.139,4.139,0,0,1-2-.457,2.467,2.467,0,0,1-1.028-1.657,7.113,7.113,0,0,1-2.857,1.657,11.34,11.34,0,0,1-3.257.514,7.635,7.635,0,0,1-2.285-.343,5.646,5.646,0,0,1-1.943-.971,3.974,3.974,0,0,1-1.314-1.6,4.818,4.818,0,0,1-.514-2.285,5.348,5.348,0,0,1,.571-2.685,4.3,4.3,0,0,1,1.6-1.6,6.639,6.639,0,0,1,2.171-.857c.8-.171,1.6-.286,2.457-.4.686-.114,1.371-.229,2-.286a13.389,13.389,0,0,0,1.714-.286,2.217,2.217,0,0,0,1.143-.629,1.667,1.667,0,0,0,.4-1.257,2.173,2.173,0,0,0-.343-1.257,1.963,1.963,0,0,0-.914-.743,3.693,3.693,0,0,0-1.2-.343,9.686,9.686,0,0,0-1.257-.057,4.8,4.8,0,0,0-2.685.686,2.654,2.654,0,0,0-.914,1.028,1.878,1.878,0,0,1-1.714,1.086h0a1.888,1.888,0,0,1-1.657-2.8h0a5.592,5.592,0,0,1,1.828-1.828,7.436,7.436,0,0,1,2.514-.971,15.623,15.623,0,0,1,2.857-.286,13.127,13.127,0,0,1,2.571.286,6.2,6.2,0,0,1,2.285.914,4.3,4.3,0,0,1,1.6,1.6,4.4,4.4,0,0,1,.628,2.4v8.97Zm-3.942-4.914a4.25,4.25,0,0,1-2.171.686c-.857.057-1.714.229-2.571.343a9.134,9.134,0,0,0-1.2.286,2.9,2.9,0,0,0-1.028.514,2.529,2.529,0,0,0-.686.857,2.906,2.906,0,0,0-.229,1.257,1.422,1.422,0,0,0,.4,1.086,2.75,2.75,0,0,0,.914.686,3.792,3.792,0,0,0,1.143.343,8.589,8.589,0,0,0,1.143.114,6.48,6.48,0,0,0,1.428-.171,4.407,4.407,0,0,0,1.428-.571,3.746,3.746,0,0,0,1.086-1.028,2.6,2.6,0,0,0,.457-1.543V55.956Z" transform="translate(-153.774 -35.616)"/>
    <path id="Path_647" data-name="Path 647" class="cls-3" d="M152.6,56.856a7.685,7.685,0,0,0,.286,2,4.169,4.169,0,0,0,.857,1.657,4.3,4.3,0,0,0,1.486,1.143,4.819,4.819,0,0,0,2.114.4,4.458,4.458,0,0,0,2.743-.743,4.353,4.353,0,0,0,1.543-2.228h3.714a7.434,7.434,0,0,1-1.086,2.571,7.174,7.174,0,0,1-1.828,1.885,6.674,6.674,0,0,1-2.4,1.143,8.612,8.612,0,0,1-2.743.4,9.562,9.562,0,0,1-3.714-.686,7.734,7.734,0,0,1-4.4-4.857,11.354,11.354,0,0,1-.571-3.771,10.8,10.8,0,0,1,.571-3.6,9,9,0,0,1,1.714-2.971,8.637,8.637,0,0,1,2.685-2.057,7.867,7.867,0,0,1,3.542-.743,8.313,8.313,0,0,1,3.771.857,8.888,8.888,0,0,1,2.743,2.285,9.406,9.406,0,0,1,1.6,3.314,9.584,9.584,0,0,1,.229,3.828H152.6Zm9.085-2.571a6.146,6.146,0,0,0-.4-1.771,4.343,4.343,0,0,0-.914-1.486A6.151,6.151,0,0,0,159,50a3.673,3.673,0,0,0-1.771-.4,5.033,5.033,0,0,0-1.885.343,4.219,4.219,0,0,0-1.428.971,4.466,4.466,0,0,0-.971,1.486,6.534,6.534,0,0,0-.4,1.828h9.142Z" transform="translate(-140.658 -35.487)"/>
    <path id="Path_648" data-name="Path 648" class="cls-3" d="M216.127,41.755V38.842h-3.542v-9.6a1.927,1.927,0,0,0-1.943-1.943h0a1.927,1.927,0,0,0-1.943,1.943v9.6h-6l.343.171a5.423,5.423,0,0,1,1.828,1.771,5.063,5.063,0,0,1,.457.971H208.7v10.4a9.542,9.542,0,0,0,.229,1.943,2.66,2.66,0,0,0,.743,1.428,2.932,2.932,0,0,0,1.486.857,9.339,9.339,0,0,0,2.457.286,8.847,8.847,0,0,0,1.257-.057,9.343,9.343,0,0,1,1.257-.114V53.468a4.481,4.481,0,0,1-.8.114h-.8a2.387,2.387,0,0,1-1.029-.171,1.141,1.141,0,0,1-.571-.457,1.621,1.621,0,0,1-.228-.743,5.9,5.9,0,0,1-.057-1.086v-9.37Z" transform="translate(-163.847 -27.3)"/>
    <path id="Path_649" data-name="Path 649" class="cls-3" d="M228.457,27.3h0a1.927,1.927,0,0,1,1.943,1.943V41.184h.057a5.5,5.5,0,0,1,2.114-2,6.584,6.584,0,0,1,3.142-.8,6.662,6.662,0,0,1,4.571,1.486,5.707,5.707,0,0,1,1.657,4.514V55.125a1.415,1.415,0,0,1-1.428,1.428h-1.086A1.415,1.415,0,0,1,238,55.125V45.412a4.771,4.771,0,0,0-.914-3.028,3.291,3.291,0,0,0-2.571-.914,4.259,4.259,0,0,0-1.771.343,3.757,3.757,0,0,0-1.314.971,5.336,5.336,0,0,0-.857,1.486,4.909,4.909,0,0,0-.286,1.828V56.5H226.4V29.243A2.065,2.065,0,0,1,228.457,27.3Z" transform="translate(-174.006 -27.3)"/>
    <path id="Path_650" data-name="Path 650" class="cls-3" d="M258.746,58.167a6.579,6.579,0,0,0,.8,1.828,4.316,4.316,0,0,0,1.314,1.371,4.508,4.508,0,0,0,1.714.686,4.856,4.856,0,0,0,2.171-.171c.343-.114.686-.229.971-.343a1.452,1.452,0,0,1,2,.971v.114a1.512,1.512,0,0,1-.857,1.771l-1.371.514a10.616,10.616,0,0,1-3.714.343,7.727,7.727,0,0,1-3.143-1.143,8,8,0,0,1-2.4-2.4,11.361,11.361,0,0,1-1.543-3.485,11.074,11.074,0,0,1-.4-3.6,8.135,8.135,0,0,1,.857-3.314,7.691,7.691,0,0,1,2.057-2.685,8.119,8.119,0,0,1,3.2-1.657,8.752,8.752,0,0,1,3.828-.171,8.459,8.459,0,0,1,3.257,1.486,9.242,9.242,0,0,1,2.4,2.743,2.318,2.318,0,0,1,.286.514,2.7,2.7,0,0,1-1.657,3.828Zm8.113-4.914a7.127,7.127,0,0,0-.857-1.6,4.162,4.162,0,0,0-1.257-1.2,4.927,4.927,0,0,0-1.6-.628,4.022,4.022,0,0,0-1.828.114,4.4,4.4,0,0,0-1.714.857,4.983,4.983,0,0,0-1.143,1.314,4.286,4.286,0,0,0-.514,1.714,5.254,5.254,0,0,0,.114,1.885Z" transform="translate(-185.955 -35.598)"/>
    <path id="Path_651" data-name="Path 651" class="cls-1" d="M345.046,58.167a6.578,6.578,0,0,0,.8,1.828,4.315,4.315,0,0,0,1.314,1.371,4.508,4.508,0,0,0,1.714.686,4.857,4.857,0,0,0,2.171-.171c.343-.114.686-.229.971-.343a1.452,1.452,0,0,1,2,.971v.114a1.512,1.512,0,0,1-.857,1.771l-1.371.514a10.616,10.616,0,0,1-3.714.343,7.727,7.727,0,0,1-3.142-1.143,8,8,0,0,1-2.4-2.4,10.78,10.78,0,0,1-1.543-3.485,11.071,11.071,0,0,1-.4-3.6,8.134,8.134,0,0,1,.857-3.314,7.689,7.689,0,0,1,2.057-2.685,8.118,8.118,0,0,1,3.2-1.657,8.752,8.752,0,0,1,3.828-.171,8.459,8.459,0,0,1,3.257,1.486,9.24,9.24,0,0,1,2.4,2.743,2.313,2.313,0,0,1,.286.514,2.7,2.7,0,0,1-1.657,3.828Zm8.056-4.914a7.122,7.122,0,0,0-.857-1.6,4.165,4.165,0,0,0-1.257-1.2,4.928,4.928,0,0,0-1.6-.628,4.022,4.022,0,0,0-1.828.114,4.406,4.406,0,0,0-1.714.857,4.981,4.981,0,0,0-1.143,1.314,4.285,4.285,0,0,0-.514,1.714,5.258,5.258,0,0,0,.114,1.885Z" transform="translate(-222.946 -35.598)"/>
    <path id="Path_652" data-name="Path 652" class="cls-3" d="M291.242,46.8a4.211,4.211,0,0,0-.8.229,5.251,5.251,0,0,0-1.543.914,8.265,8.265,0,0,0-1.2,1.257,3.668,3.668,0,0,0-.686,1.428h-.057V48.286a1.085,1.085,0,0,0-1.086-1.086h-1.486a1.085,1.085,0,0,0-1.086,1.086V63.827a1.085,1.085,0,0,0,1.086,1.086h1.771a1.085,1.085,0,0,0,1.086-1.086V56.456a7.15,7.15,0,0,1,.4-2.571A5.955,5.955,0,0,1,288.671,52a3.767,3.767,0,0,1,1.543-1.143,4.14,4.14,0,0,1,1.885-.4h.343Z" transform="translate(-198.396 -35.658)"/>
    <path id="Path_653" data-name="Path 653" class="cls-1" d="M298.977,44.6h1.6a1.166,1.166,0,0,1,1.143.857L305.433,59.4h.057L308.4,47.8a2.143,2.143,0,0,1,2.057-1.6h.629a2.143,2.143,0,0,1,2.057,1.6l2.8,11.6H316l3.428-12.684a.686.686,0,0,1,.686-.514h2.457a.732.732,0,0,1,.686.914L318,63.855h-4L310.918,51.8a.3.3,0,0,0-.571,0l-2.971,12.056h-4.114l-5.485-17.769A1.246,1.246,0,0,1,298.977,44.6Z" transform="translate(-204.588 -34.715)"/>
    <path id="Path_654" data-name="Path 654" class="cls-1" d="M371,35.7h1.428a1.207,1.207,0,0,1,1.2,1.2v7.828h.057a6.394,6.394,0,0,1,.971-1.143,6.114,6.114,0,0,1,1.257-.857,11.445,11.445,0,0,1,1.485-.571,7.092,7.092,0,0,1,1.543-.171,8.2,8.2,0,0,1,3.657.743,7.439,7.439,0,0,1,2.571,2,8.648,8.648,0,0,1,1.543,2.971,12.57,12.57,0,0,1,.514,3.657,13.418,13.418,0,0,1-.457,3.428,8.445,8.445,0,0,1-1.428,2.971,6.792,6.792,0,0,1-5.771,2.8c-.571,0-1.2-.057-1.771-.114a5.41,5.41,0,0,1-1.714-.457,4.963,4.963,0,0,1-1.485-.914,3.951,3.951,0,0,1-1.086-1.428h-.057v1.371a1.024,1.024,0,0,1-1.029,1.028h-1.6a1.024,1.024,0,0,1-1.029-1.028V36.9A1.172,1.172,0,0,1,371,35.7Zm12.4,15.6a10.521,10.521,0,0,0-.286-2.343,7.133,7.133,0,0,0-.914-2,5.3,5.3,0,0,0-1.543-1.428,3.949,3.949,0,0,0-2.171-.514,4.312,4.312,0,0,0-3.714,1.714,7.358,7.358,0,0,0-1.257,4.571,8.237,8.237,0,0,0,.343,2.457,5.179,5.179,0,0,0,.971,1.943,5.564,5.564,0,0,0,1.543,1.314,4.266,4.266,0,0,0,2.114.457,3.8,3.8,0,0,0,2.228-.571,4.624,4.624,0,0,0,1.543-1.428,5.734,5.734,0,0,0,.857-2A9.047,9.047,0,0,0,383.4,51.3Z" transform="translate(-235.473 -30.901)"/>
    <path id="Path_655" data-name="Path 655" class="cls-1" d="M404.131,59.113a1.8,1.8,0,0,1,1.6,1.143,2.381,2.381,0,0,0,1.029,1.2,5.072,5.072,0,0,0,2.685.686c.343,0,.8-.057,1.257-.057a4.941,4.941,0,0,0,1.314-.343,3.241,3.241,0,0,0,1.028-.686,1.39,1.39,0,0,0,.343-1.2,1.731,1.731,0,0,0-.571-1.257,3.293,3.293,0,0,0-1.314-.743c-.514-.171-1.143-.343-1.828-.514-.686-.114-1.371-.286-2.057-.457-.743-.171-1.428-.343-2.114-.571a6.851,6.851,0,0,1-1.828-.914,3.978,3.978,0,0,1-1.257-1.486,4.578,4.578,0,0,1-.457-2.228,3.976,3.976,0,0,1,.686-2.4,5.943,5.943,0,0,1,1.771-1.6,8.578,8.578,0,0,1,2.4-.857,12.857,12.857,0,0,1,2.514-.229,13.227,13.227,0,0,1,2.628.286,6.531,6.531,0,0,1,2.228.914,4.765,4.765,0,0,1,1.657,1.714h0a1.676,1.676,0,0,1-1.486,2.514h-.629a1.7,1.7,0,0,1-1.486-.971,1.9,1.9,0,0,0-.971-.914,4.962,4.962,0,0,0-2.286-.457,6.23,6.23,0,0,0-.971.057,6.064,6.064,0,0,0-1.086.229,1.756,1.756,0,0,0-.857.571,1.3,1.3,0,0,0-.343.914,1.438,1.438,0,0,0,.514,1.143,4.681,4.681,0,0,0,1.314.743c.514.171,1.143.343,1.828.514.686.114,1.371.286,2.114.457.686.171,1.428.343,2.057.571a6.1,6.1,0,0,1,1.828.914,4.736,4.736,0,0,1,1.314,1.486,4.211,4.211,0,0,1,.514,2.171,4.627,4.627,0,0,1-.743,2.685,5.118,5.118,0,0,1-1.885,1.771,7.3,7.3,0,0,1-2.571.971,11.485,11.485,0,0,1-2.743.286,10.356,10.356,0,0,1-3.085-.4,6.511,6.511,0,0,1-2.457-1.143,5.816,5.816,0,0,1-1.657-1.885L401.9,61.4a1.726,1.726,0,0,1,1.543-2.4h.686Z" transform="translate(-249.177 -35.573)"/>
  </g>
</svg>
