<?xml version="1.0" encoding="utf-8"?>
<!-- Generator: Adobe Illustrator 22.0.0, SVG Export Plug-In . SVG Version: 6.00 Build 0)  -->
<svg version="1.2" baseProfile="tiny" id="Layer_1" xmlns="http://www.w3.org/2000/svg" xmlns:xlink="http://www.w3.org/1999/xlink"
	 x="0px" y="0px" viewBox="0 0 512 512" xml:space="preserve">
<path fill="#EC1B36" d="M434.9,76.8c-32.8-32.8-80.3-42.2-121.4-28c-8,2.7-13.3,10.3-13.2,18.7c0,3.9,0.1,8.4,0.2,12.8
	c0,0.8,0,1.7,0,2.5c0.3,3.3,1.7,6.4,4.2,8.9c4,4,9.9,5.2,15,3.6c1.1-0.5,2.2-1.1,3.3-1.6c27-12,59.7-6.7,81.6,15.8
	c27.3,28.1,27.3,73.3-0.1,101.4c-12.6,12.9-28.7,20.1-45.3,21.6c-0.8,0.1-1.6,0.1-2.3,0.2c-2.9,0.2-5.8,0.2-8.7,0h-66.8v0.1h-1.9
	l-0.4,0v-0.2l-0.1,0v-28.6v-5.8c-1.2-20.8-8-41.3-20.2-59.2c-4.1-5.9-8.7-11.6-14-16.9c-3.3-3.3-6.8-6.4-10.5-9.3
	c-0.1,0-0.1-0.1-0.2-0.1c-46.1-36.2-113-33.1-155.5,9.4c0,0,0,0-0.1,0.1c-0.2,0.2-0.3,0.3-0.5,0.5c-0.5,0.5-1.1,1.1-1.6,1.7
	c-17.7,20.6,10.9,49.3,31.6,31.6c0.6-0.5,1.1-1,1.7-1.6c0.2-0.2,0.3-0.3,0.5-0.5c0,0,0,0,0.1-0.1c28.4-28.4,74.4-28.4,102.8,0
	c12.8,12.8,19.8,29.1,21.1,45.8c0.1,1.1,0.1,2.1,0.2,3.2c0,0.4,0,0.8,0,1.2h-0.1l0,28.6l0,0.2h-72.2c-30.1,0-60.1,11.5-83.1,34.4
	c-3.3,3.3-6.3,6.7-9.1,10.2c0,0.1-0.1,0.1-0.1,0.2c-36.5,46.2-33.4,113.1,9.3,155.8c42.4,42.4,109.1,45.6,155.1,9.7
	c0.2-0.2,0.4-0.3,0.6-0.5c3.6-2.9,7.1-5.9,10.4-9.3c19.2-19.2,30.4-43.5,33.5-68.5c0.2-1.7,0.3-3.5,0.3-5.2v-50.5v-31.7h2.5v-0.1
	h70.5c30.1,0,60.1-11.5,83.1-34.4c3.3-3.3,6.3-6.7,9.1-10.2c0-0.1,0.1-0.1,0.1-0.2C480.5,186.5,477.5,119.4,434.9,76.8z M234,361.5
	c-0.1,1.1-0.3,3-0.4,4.1c-2.8,12.7-9,24.9-18.7,34.9c-26.9,27.9-72.1,29.6-100.8,3.7c-31.2-28.1-32.2-76.2-2.9-105.5
	c12.5-12.5,28.4-19.5,44.7-21c0.8-0.1,1.7-0.1,2.5-0.2c2.8-0.2,5.7-0.2,8.5,0H234v59.1c0,0,0,0,0,0L234,361.5z"/>
</svg>
